<?xml version="1.0" encoding="utf-8"?>
<!-- Generator: Adobe Illustrator 19.2.1, SVG Export Plug-In . SVG Version: 6.00 Build 0)  -->
<svg version="1.1" id="Layer_1" xmlns="http://www.w3.org/2000/svg" xmlns:xlink="http://www.w3.org/1999/xlink" x="0px" y="0px"
	 viewBox="0 0 32 32" style="enable-background:new 0 0 32 32;" xml:space="preserve">
<style type="text/css">
	.st0{fill:#444444;}
</style>
<g>
	<path class="st0" d="M12,14.6c0,0,3.9-0.3,3.9-4.9s-3.2-6.8-7.2-6.8H1.4H1.1h-5.6v25.4h5.6h0.3h7.4c0,0,8.1,0.3,8.1-7.6
		C16.8,21,17.2,14.6,12,14.6z M1.4,7.5h6.4h0.9c0,0,1.8,0,1.8,2.7s-1,3.1-2.3,3.1H1.4V7.5z M8.4,24H1.4v-6.8h7.4c0,0,2.7,0,2.7,3.5
		C11.4,23.6,9.5,24,8.4,24z"/>
	<path class="st0" d="M27.6,9.5c-9.8,0-9.8,9.8-9.8,9.8S17.2,29,27.6,29c0,0,8.7,0.5,8.7-6.8h-4.5c0,0,0.1,2.7-4.1,2.7
		c0,0-4.5,0.3-4.5-4.5h13.2C36.4,20.5,38,9.5,27.6,9.5z M31.5,17.2h-8.3c0,0,0.5-4,4.5-4C31.7,13.2,31.5,17.2,31.5,17.2z"/>
	<rect x="22.2" y="4.5" class="st0" width="10.5" height="2.6"/>
</g>
</svg>
