<?xml version="1.0" encoding="utf-8"?>
<!-- Generator: Adobe Illustrator 19.2.1, SVG Export Plug-In . SVG Version: 6.00 Build 0)  -->
<svg version="1.1" id="Layer_1" xmlns="http://www.w3.org/2000/svg" xmlns:xlink="http://www.w3.org/1999/xlink" x="0px" y="0px"
	 viewBox="0 0 32 32" style="enable-background:new 0 0 32 32;" xml:space="preserve">
<style type="text/css">
	.st0{fill:#444444;}
</style>
<path class="st0" d="M31.001,9.006c-0.093,2.895-2.148,6.911-6.071,11.955c-4.11,5.324-7.472,7.939-10.274,7.939
	c-1.775,0-3.176-1.588-4.39-4.857c-0.841-2.989-1.588-5.884-2.428-8.873c-0.934-3.176-1.868-4.857-2.895-4.857
	c-0.187,0-1.027,0.467-2.335,1.401L1.114,9.94c1.494-1.308,2.895-2.615,4.39-3.923c1.961-1.681,3.456-2.615,4.39-2.709
	c2.335-0.187,3.736,1.401,4.296,4.763c0.56,3.643,1.027,5.977,1.214,6.818c0.654,3.082,1.401,4.576,2.242,4.576
	c0.654,0,1.588-1.027,2.802-2.989s1.961-3.456,2.055-4.483c0.187-1.681-0.467-2.522-2.055-2.522c-0.747,0-1.494,0.187-2.242,0.467
	c1.494-4.857,4.296-7.192,8.406-7.005C29.694,3.122,31.188,5.084,31.001,9.006z"/>
</svg>
